<svg width="357" height="219" viewBox="0 0 357 219" fill="none" xmlns="http://www.w3.org/2000/svg"><rect x="30.108" y="101.242" width="98.928" height="17.951" rx="8.975" fill="#DFF4F9"/><rect x="49.464" y="119.193" width="98.928" height="17.951" rx="8.975" fill="#DFF4F9"/><rect x="188.536" y="121.348" width="58.157" height="10.553" rx="5.276" fill="#C9E9F0"/><rect x="199.915" y="131.9" width="58.157" height="10.553" rx="5.276" fill="#C9E9F0"/><g opacity=".5"><path d="M304.167 192.895H1.28939C-3.29078 131.351 19.2767 56.815 81.113 56.815C142.949 56.815 143.504 15.7965 187.347 15.7969C231.189 15.7973 254.22 71.9171 280.581 78.5982C306.941 85.2794 316.931 161.109 304.167 192.895Z" fill="#A9DBFF"/></g><rect y="183.098" width="309.687" height="10.053" rx="5.026" fill="#384C72"/><rect x="22.223" y="213.975" width="164.88" height="5.026" rx="2.513" fill="#384C72"/><rect x="160.578" y="201.049" width="91.759" height="5.026" rx="2.513" fill="#384C72"/><path d="M214.848 30.3521V184.6C214.848 185.606 214.449 186.571 213.738 187.283C213.028 187.995 212.064 188.394 211.059 188.394H98.4148C97.4101 188.394 96.4465 187.995 95.7361 187.283C95.0256 186.571 94.6265 185.606 94.6265 184.6V30.3521C94.6265 29.3458 95.0256 28.3806 95.7361 27.669C96.4465 26.9574 97.4101 26.5576 98.4148 26.5576H211.081C212.082 26.5633 213.04 26.9657 213.746 27.6766C214.452 28.3876 214.848 29.3495 214.848 30.3521V30.3521Z" fill="#FD6559"/><path d="M214.848 69.2119V184.598C214.848 185.605 214.449 186.57 213.738 187.281C213.028 187.993 212.064 188.393 211.059 188.393H98.4148C97.4101 188.393 96.4465 187.993 95.7361 187.281C95.0256 186.57 94.6265 185.605 94.6265 184.598V132.526L214.848 69.2119Z" fill="#9E2F26"/><path d="M187.198 176.099H104.466V37.8369H205.031V157.538L187.198 176.099Z" fill="#F5F5FD"/><path d="M187.198 176.101V157.54H205.031L187.198 176.101Z" fill="#C9D2DD"/><path d="M134.529 71.2734H165.318" stroke="#091521" stroke-width="1.97" stroke-linecap="round" stroke-linejoin="round"/><path d="M134.529 80.6182H145.51" stroke="#091521" stroke-width="1.97" stroke-linecap="round" stroke-linejoin="round"/><path d="M151.301 80.6182H177.489" stroke="#091521" stroke-width="1.97" stroke-linecap="round" stroke-linejoin="round"/><path d="M139.042 75.9453H188.643" stroke="#091521" stroke-width="1.97" stroke-linecap="round" stroke-linejoin="round"/><path d="M196.707 71.2734H174.691" stroke="#091521" stroke-width="1.97" stroke-linecap="round" stroke-linejoin="round"/><path d="M127.818 71.2734H116.069V83.0419H127.818V71.2734Z" stroke="#FD6559" stroke-width="1.97" stroke-linecap="round" stroke-linejoin="round"/><path d="M120.02 75.957L122.671 78.727L132.803 71.2734" stroke="#FD6559" stroke-width="4" stroke-linecap="round" stroke-linejoin="round"/><path d="M134.529 90.5273H144.536" stroke="#091521" stroke-width="1.97" stroke-linecap="round" stroke-linejoin="round"/><path d="M134.529 99.873H141.613" stroke="#091521" stroke-width="1.97" stroke-linecap="round" stroke-linejoin="round"/><path d="M151.301 99.873H183.139" stroke="#091521" stroke-width="1.97" stroke-linecap="round" stroke-linejoin="round"/><path d="M139.042 95.2002H157.633" stroke="#091521" stroke-width="1.97" stroke-linecap="round" stroke-linejoin="round"/><path d="M162.552 95.2002H195.105" stroke="#091521" stroke-width="1.97" stroke-linecap="round" stroke-linejoin="round"/><path d="M170.362 90.5273H151.301" stroke="#091521" stroke-width="1.97" stroke-linecap="round" stroke-linejoin="round"/><path d="M127.818 89.4482H116.069V101.217H127.818V89.4482Z" stroke="#FD6559" stroke-width="1.97" stroke-linecap="round" stroke-linejoin="round"/><path d="M120.02 94.4531L122.671 97.2231L132.803 89.7695" stroke="#FD6559" stroke-width="4" stroke-linecap="round" stroke-linejoin="round"/><path d="M134.529 109.783H151.301" stroke="#091521" stroke-width="1.97" stroke-linecap="round" stroke-linejoin="round"/><path d="M134.529 119.128H166.113" stroke="#091521" stroke-width="1.97" stroke-linecap="round" stroke-linejoin="round"/><path d="M174.464 119.128H191.338" stroke="#091521" stroke-width="1.97" stroke-linecap="round" stroke-linejoin="round"/><path d="M139.042 114.454H160.236" stroke="#091521" stroke-width="1.97" stroke-linecap="round" stroke-linejoin="round"/><path d="M188.21 114.454H170.362" stroke="#091521" stroke-width="1.97" stroke-linecap="round" stroke-linejoin="round"/><path d="M196.707 109.783H157.633" stroke="#091521" stroke-width="1.97" stroke-linecap="round" stroke-linejoin="round"/><path d="M127.818 107.624H116.069V119.392H127.818V107.624Z" stroke="#FD6559" stroke-width="1.97" stroke-linecap="round" stroke-linejoin="round"/><path d="M120.02 112.302L122.671 115.072L132.803 107.624" stroke="#FD6559" stroke-width="4" stroke-linecap="round" stroke-linejoin="round"/><path d="M134.529 129.036H165.318" stroke="#091521" stroke-width="1.97" stroke-linecap="round" stroke-linejoin="round"/><path d="M134.529 138.383H145.51" stroke="#091521" stroke-width="1.97" stroke-linecap="round" stroke-linejoin="round"/><path d="M151.301 138.383H177.489" stroke="#091521" stroke-width="1.97" stroke-linecap="round" stroke-linejoin="round"/><path d="M139.042 133.709H188.643" stroke="#091521" stroke-width="1.97" stroke-linecap="round" stroke-linejoin="round"/><path d="M196.707 129.036H174.691" stroke="#091521" stroke-width="1.97" stroke-linecap="round" stroke-linejoin="round"/><path d="M127.818 125.801H116.069V137.569H127.818V125.801Z" stroke="#FD6559" stroke-width="1.97" stroke-linecap="round" stroke-linejoin="round"/><path d="M120.02 130.16L122.671 132.93L132.803 125.481" stroke="#FD6559" stroke-width="4" stroke-linecap="round" stroke-linejoin="round"/><path d="M187.296 21.4131H172.851C172.273 21.4176 171.701 21.2962 171.174 21.0572C170.648 20.8183 170.179 20.4675 169.801 20.0292C169.423 19.591 169.145 19.0757 168.986 18.519C168.827 17.9624 168.79 17.3777 168.879 16.8055C169.227 14.7585 169.129 12.6601 168.592 10.6546C168.054 8.64915 167.089 6.78403 165.763 5.18741C164.438 3.5908 162.783 2.30055 160.912 1.40529C159.042 0.51004 157 0.0310105 154.927 0.00111395C153.028 -0.0225662 151.144 0.331511 149.383 1.04281C147.623 1.75411 146.021 2.80848 144.67 4.14476C143.319 5.48104 142.247 7.07264 141.515 8.82724C140.783 10.5818 140.406 12.4645 140.406 14.3661C140.407 15.0609 140.458 15.7547 140.558 16.4423C140.643 17.0658 140.594 17.7003 140.413 18.303C140.232 18.9057 139.925 19.4625 139.51 19.9358C139.096 20.4091 138.586 20.7879 138.013 21.0465C137.44 21.3051 136.819 21.4375 136.19 21.4348H122.2C121.163 21.4533 120.175 21.8789 119.448 22.62C118.722 23.3612 118.315 24.3585 118.315 25.3974V37.426C118.315 38.1572 118.517 38.8739 118.899 39.4968C119.281 40.1198 119.828 40.6245 120.479 40.955C121.013 41.2321 121.605 41.3806 122.206 41.3886H187.296C188.333 41.3701 189.321 40.9445 190.048 40.2034C190.774 39.4623 191.182 38.4649 191.181 37.426V25.3757C191.182 24.3369 190.774 23.3395 190.048 22.5984C189.321 21.8572 188.333 21.4316 187.296 21.4131V21.4131ZM154.748 6.50602C156.295 6.50602 157.807 6.96542 159.093 7.82612C160.379 8.68682 161.381 9.91017 161.973 11.3415C162.565 12.7728 162.72 14.3477 162.418 15.8672C162.116 17.3866 161.371 18.7823 160.278 19.8778C159.184 20.9733 157.791 21.7193 156.274 22.0215C154.757 22.3238 153.184 22.1686 151.755 21.5758C150.326 20.9829 149.105 19.9789 148.246 18.6908C147.386 17.4027 146.928 15.8882 146.928 14.339C146.928 12.2616 147.752 10.2692 149.218 8.80026C150.685 7.33128 152.674 6.50602 154.748 6.50602V6.50602Z" fill="#FFDA59"/><path d="M191.181 25.3772V37.4275C191.182 38.4664 190.774 39.4637 190.048 40.2049C189.321 40.946 188.333 41.3716 187.296 41.3901H122.201C121.599 41.3821 121.008 41.2336 120.474 40.9564L176.461 21.4092H187.285C188.325 21.4249 189.316 21.85 190.046 22.5926C190.775 23.3352 191.183 24.3355 191.181 25.3772V25.3772Z" fill="#FFC83C"/><path d="M123.023 25.2627H186.467" stroke="#fff" stroke-width="2" stroke-linecap="round" stroke-linejoin="round"/><path d="M123.023 29.0615H186.467" stroke="#fff" stroke-width="2" stroke-linecap="round" stroke-linejoin="round"/><path d="M123.023 32.8613H186.467" stroke="#fff" stroke-width="2" stroke-linecap="round" stroke-linejoin="round"/><rect width="41.969" height="7.615" rx="3.808" transform="matrix(-1 0 0 1 73.1206 149.351)" fill="#DFF4F9" fill-opacity=".6"/><rect width="41.969" height="7.615" rx="3.808" transform="matrix(-1 0 0 1 64.9092 156.967)" fill="#DFF4F9" fill-opacity=".6"/><path fill-rule="evenodd" clip-rule="evenodd" d="M91.853 88.7838C91.7077 90.4226 91.701 91.3765 91.833 91.6456C92.1155 92.2217 93.3272 94.3421 91.7859 96.1299C90.2445 97.9177 84.3793 98.9463 82.5944 96.0672C82.6863 93.9117 83.2954 90.2542 84.4217 85.0947C83.6728 84.4418 83.1572 83.7731 83.0623 83.1522C82.8053 81.4706 82.4135 79.9268 81.887 78.5209C81.887 75.0797 84.7356 72.29 88.2497 72.29C91.7637 72.29 94.6123 75.0797 94.6123 78.5209V82.5052C94.6123 85.9464 94.1999 88.6795 92.4872 88.8314C92.3235 88.8459 92.1084 88.8288 91.853 88.7838Z" fill="#FFB5B9"/><path d="M91.9429 90.0802C91.9525 88.5713 91.9339 87.6917 91.8837 87.4031C91.8792 87.3772 91.8747 87.3566 91.8687 87.3371C91.862 87.315 91.862 87.315 91.8377 87.2698C91.7734 87.1735 91.7734 87.1735 91.5138 87.1957C91.4152 87.2976 91.4152 87.2976 91.4082 87.336C91.4013 87.3637 91.4013 87.3637 91.3987 87.3817C91.3962 87.4002 91.3945 87.4211 91.3934 87.4467C91.3896 87.53 91.3901 87.6816 91.3949 87.9064C91.4042 88.3476 91.4299 89.0746 91.4718 90.0885C91.4845 90.3955 91.941 90.3875 91.9429 90.0802Z" fill="#F97A80"/><path fill-rule="evenodd" clip-rule="evenodd" d="M84.1808 86.2835C87.1822 86.7211 88.8752 86.6444 89.2598 86.0535C89.8366 85.1671 89.1218 81.1895 90.9553 80.3965C92.7888 79.6036 92.975 81.3022 93.1107 82.0437C93.1112 82.0465 93.2153 82.7376 93.0308 83.6202C92.6671 85.3599 91.885 87.9233 91.8994 87.9853C91.9269 88.1035 91.9269 88.8014 91.8994 90.0789C92.7062 90.3877 93.4005 90.4649 93.9825 90.3105C94.8554 90.0789 94.8487 85.1757 94.8554 85.0789C94.8721 84.8377 93.4847 80.9471 93.4578 80.551C93.3592 79.0959 93.1613 76.9555 94.2907 76.7775C94.7688 76.7022 95.199 76.598 95.5811 76.4648C98.9036 75.3076 97.9131 73.5768 96.6609 72.9496C95.4087 72.3224 88.0254 71.3729 85.6613 71.5614C84.0852 71.6871 83.1941 72.5131 82.9881 74.0396C82.0205 74.4484 81.4984 75.4453 81.4217 77.0304C81.345 78.6154 82.2647 81.6997 84.1808 86.2835Z" fill="#732213"/><path d="M92.6057 81.812C91.8302 81.0622 91.1394 81.157 90.7539 82.0935C90.7043 82.2141 90.7617 82.352 90.882 82.4017C91.0023 82.4514 91.1401 82.394 91.1897 82.2735C91.4414 81.6618 91.7307 81.6221 92.2783 82.1516C92.372 82.2422 92.5212 82.2395 92.6115 82.1458C92.7019 82.052 92.6993 81.9025 92.6057 81.812Z" fill="#F97A80"/><path fill-rule="evenodd" clip-rule="evenodd" d="M75.3823 201.442L80.2401 202.388L77.2881 212.381L73.4038 211.637L75.3823 201.442ZM105.312 202.633L110.224 202.029L110.499 212.446L106.576 212.941L105.312 202.633Z" fill="#FFB5B9"/><path fill-rule="evenodd" clip-rule="evenodd" d="M92.5808 153.792L80.0699 207.485L73.6399 206.326C74.7804 184.558 76.9238 172.738 80.0699 170.866C78.3613 158.622 78.563 145.354 80.6751 131.063L85.0191 131.282L103.004 129.828L110.874 170.319L110.71 207.842L104.73 208.987C101.35 188.041 100.994 176.304 103.661 173.776C100.289 168.344 96.5952 161.682 92.5808 153.792Z" fill="#021768"/><path fill-rule="evenodd" clip-rule="evenodd" d="M73.3774 210.693C73.7938 210.282 75.7439 211.481 76.5561 211.483C77.0976 211.485 77.4502 211.226 77.6141 210.705C80.9844 212.086 82.9768 212.961 83.5911 213.33C84.2055 213.699 84.3869 214.129 84.1353 214.62H73.3774C73.0998 212.276 73.0998 210.967 73.3774 210.693ZM106.133 210.929C106.55 210.518 108.5 211.717 109.312 211.719C109.854 211.721 110.206 211.462 110.37 210.941C113.74 212.322 115.733 213.197 116.347 213.566C116.962 213.935 117.143 214.365 116.891 214.856H106.133C105.856 212.512 105.856 211.203 106.133 210.929Z" fill="#021768"/><path fill-rule="evenodd" clip-rule="evenodd" d="M124.41 73.9442C124.712 72.4202 124.983 71.484 125.222 71.1355C125.461 70.7869 125.702 70.9106 125.946 71.5064C127.563 69.6777 128.51 68.8231 128.787 68.9426C129.339 69.181 127.791 71.0164 127.72 71.424C128.03 71.3044 128.29 71.0525 128.658 71.351C128.902 71.5499 128.841 71.9108 128.473 72.4337C128.873 72.0899 129.146 72.0453 129.289 72.2998C129.505 72.6815 129.809 72.7073 129.201 73.3368C128.979 73.567 129.695 73.167 129.831 73.4619C129.967 73.7569 130.602 73.4271 129.407 74.4388C128.61 75.1133 127.617 75.5955 126.427 75.8854L124.439 79.6171L122.032 77.9706L124.41 73.9442Z" fill="#FFB5B9"/><path fill-rule="evenodd" clip-rule="evenodd" d="M101.53 103.017C102.226 109.61 101.751 116.221 102.355 120.453C102.866 124.026 104.734 124.627 105.324 126.225C105.767 127.427 99.4726 134.069 93.1961 135.836C86.9195 137.603 83.1373 135.686 79.4728 133.022C78.6836 132.449 79.2843 129.203 79.8183 125.807C77.0491 125.614 74.8401 125.192 74.1885 124.372C72.2083 121.882 71.5877 101.347 73.8228 96.9213C74.1071 96.1777 74.6613 95.5102 75.6394 94.8807C76.3957 94.3939 78.7781 93.348 82.7867 91.7428C82.7867 91.5185 82.7773 89.9869 83.1894 90.0976C84.8206 90.5361 91.1717 90.1775 91.7743 90.0976C92.3768 90.0177 92.1724 92.0731 92.1309 91.5185C94.7709 91.6806 96.7077 92.02 97.9412 92.537C103.659 91.3647 110.398 90.5317 111.589 91.2677C112.214 86.8001 117.415 84.3203 123.3 74.9958C124.007 73.8759 125.277 74.2881 127.11 76.2324C122.077 88.2594 115.222 98.7498 115.084 98.8743C113.473 100.331 107.171 102.14 101.53 103.017ZM80.0002 117.858C79.9935 117.873 79.9869 117.889 79.9802 117.904C79.9927 117.906 80.0052 117.909 80.0177 117.912C80.0119 117.894 80.0061 117.876 80.0002 117.858Z" fill="#89D8FF"/><path fill-rule="evenodd" clip-rule="evenodd" d="M82.8803 91.1094C83.8331 91.5937 87.5098 92.2945 92.161 90.9834C92.2991 91.0688 95.7096 91.5406 97.9049 92.541C95.9644 94.4893 96.2633 106.37 98.9337 107.823C101.604 109.277 101.653 104.276 101.704 104.965C102.143 110.89 101.81 116.638 102.355 120.453C102.866 124.026 104.734 124.627 105.323 126.225C105.767 127.427 99.4725 134.069 93.196 135.836C86.9195 137.603 83.1373 135.686 79.4728 133.022C78.0741 132.006 81.0413 122.593 80.2657 118.833C79.49 115.074 74.9718 109.275 74.2202 103.306C73.7138 99.2853 72.5181 96.8896 75.6394 94.8807C76.7738 94.1506 82.0272 91.2403 82.8803 91.1094Z" fill="#021768"/><path d="M101.087 102.761C100.194 103.237 99.6825 103.612 99.5246 103.94C99.1173 104.784 99.0737 105.557 99.2483 106.196C99.2845 106.329 99.3222 106.425 99.3503 106.482C99.41 106.601 99.5521 106.648 99.6678 106.587C99.7834 106.525 99.8288 106.377 99.7691 106.258C99.7549 106.229 99.7291 106.163 99.7018 106.063C99.5578 105.535 99.5943 104.888 99.9462 104.158C100.042 103.96 100.503 103.622 101.303 103.196C101.418 103.134 101.464 102.987 101.405 102.867C101.345 102.747 101.203 102.7 101.087 102.761Z" fill="#0E143F"/><path d="M79.4406 133.413C80.2987 134.661 83.4051 135.754 88.8222 136.759C88.9503 136.783 89.0728 136.695 89.0957 136.562C89.1187 136.429 89.0334 136.303 88.9053 136.279C83.6264 135.299 80.5787 134.227 79.8244 133.13C79.0714 132.035 79.0714 130.315 79.8553 127.962L79.8624 127.936C81.0607 122.426 80.8633 118.187 79.2538 115.22C77.6848 112.327 76.3453 109.194 75.2351 105.82C75.1931 105.692 75.0592 105.624 74.936 105.667C74.8129 105.711 74.747 105.85 74.789 105.977C75.9083 109.379 77.2596 112.54 78.8429 115.459C80.3844 118.301 80.5773 122.419 79.4055 127.816C78.5812 130.297 78.5827 132.166 79.4406 133.413Z" fill="#0E143F"/><path d="M124.169 77.045C125.113 77.4256 125.669 77.8858 125.856 78.4094C125.901 78.5359 126.036 78.6007 126.158 78.5541C126.28 78.5074 126.343 78.367 126.298 78.2405C126.056 77.5611 125.398 77.0163 124.34 76.5899C124.219 76.541 124.082 76.6033 124.035 76.7289C123.988 76.8546 124.048 76.9961 124.169 77.045Z" fill="#0E143F"/><g clip-path="url(#clip0)"><path d="M259.422 183.329L250.515 183.317L236.814 184.045L222.508 183.638L208.368 183.489L211.156 182.956L210.03 180.043L216.229 183.036L217.429 179.441L218.12 182.228L220.943 182.056L223.365 175.943L225.656 181.809L227.319 178.782L230.233 182.245L234.181 177.824L234.443 181.809L237.689 181.127L238.151 182.216L243.916 180.295L243.522 182.795L249.058 180.829L249.344 182.382L252.126 180.978L251.972 181.866L254.183 178.185L254.331 181.276L258.388 181.173L257.868 182.371L260.685 182.853L260.102 183.323L259.422 183.329Z" fill="#10B12A"/><path d="M247.733 116.994L245.904 107.407L239.951 106.662L232.775 101.76L225.702 96.1289L219.783 88.05L211.064 85.5787L199.9 86.9376L190.559 83.8873L187.497 78.9619L190.936 89.7644L193.084 96.5475L199.729 101.943L207.116 111.478L207.071 118.021L209.905 124.655L216.429 126.415L219.212 125.555L220.183 125.291L221.588 124.993L223.439 126.272L227.376 128.554L231.507 129.861L234.769 127.464L241.814 132.625L246.144 139.488L265.838 130.646L265.981 128.898L269.558 123.204L269.683 122.132L260.102 126.381L247.733 116.994Z" fill="#26976E"/><path d="M255.331 114.305L252.36 119.139L248.447 123.181L246.23 124.947L246.281 124.173L246.521 120.01L246.807 115.847V99.1047L245.219 99.162L244.904 115.727L244.544 119.867L244.23 124.018L242.665 131.828L242.27 132.699L241.808 133.525L241.282 134.31L240.671 135.119L238.094 138.421L235.877 142.217L234.06 145.835L233.552 146.684L232.998 147.555L231.901 149.453L230.809 151.896L229.604 148.209L226.604 141.913L224.473 135.778L224.273 134.201L224.193 132.567L224.119 129.104L223.719 119.431L225.113 115.44L226.542 113.388L227.421 112.482L228.404 111.616L230.404 109.695L232.095 107.447L233.295 104.879L233.958 102.161L234.312 96.7079L234.466 91.3411L234.769 80.6074L233.815 80.5673L233.323 91.3124L233.078 96.685L232.643 101.937L231.998 104.42L230.884 106.69L229.318 108.692L227.421 110.446L226.376 111.335L225.37 112.333L223.696 114.649L223.468 115.079L222.399 101.484L219.971 87.7689L216.886 74.3633L215.018 74.7188L219.983 100.171L218.429 98.1815L214.652 93.1014L211.847 87.4364L211.007 84.4146L210.858 81.3356L209.916 81.2094L209.973 84.5809L210.767 87.8091L213.509 93.7894L217.286 99.1907L219.034 101.714L220.303 104.019L221.457 129.156L221.485 132.59L221.542 134.402L221.748 136.248L224.022 143.129L226.867 149.316L228.307 155.531L228.101 183.116L231.524 182.916L231.506 161.322L232.821 154.298L234.237 150.646L235.186 148.926L235.734 148.031L236.277 147.079L238.123 143.232L240.025 139.809L242.505 136.512L243.133 135.646L243.744 134.694L244.276 133.691L244.727 132.659L245.864 128.227L245.973 128.25L247.247 126.203L249.418 124.356L253.429 119.936L256.371 114.781L258.028 109.07L257.091 108.927L255.331 114.305Z" fill="#ADA29A"/><path d="M208.756 57.1848L216.001 60.9806L226.942 64.1055L230.633 67.9643L247.11 68.1765L248.492 60.2753L246.23 55.2697L244.036 48.4465L235.249 37.5006L225.691 32.6842L219.594 33.2347L216.252 32.3115L204.14 35.8091L200.363 46.6862L199.906 47.3169L201.18 52.2652L208.756 57.1848Z" fill="#42C696"/><path d="M208.745 65.2527L216.623 64.9718L220.834 66.9041L229.667 74.3236L236.586 76.8522L245.853 74.2032L246.818 69.8283L247.11 68.177L230.632 67.9648L226.942 64.106L216.001 60.981L208.756 57.1853L201.18 52.2657L199.906 47.3174L194.587 54.6739L193.89 56.1245L197.569 60.7861L208.745 65.2527Z" fill="#26976E"/><path d="M270.923 114.351L269.717 105.148L271.386 100.005L269.992 93.411L260.559 84.8447L248.412 82.4422L244.013 78.5088L245.59 75.3782L245.853 74.2027L236.586 76.8517L229.667 74.3231L220.834 66.9036L216.623 64.9713L208.745 65.2522L197.569 60.7856L193.89 56.124L190.159 63.8761L187.103 77.7233L187.497 78.9618L190.559 83.8871L199.9 86.9375L211.064 85.5786L219.783 88.0499L225.702 96.1288L232.775 101.759L239.951 106.662L245.904 107.407L247.732 116.994L260.102 126.38L269.683 122.132L270.117 118.41L270.923 114.351Z" fill="#42C696"/></g><defs><clipPath id="clip0"><rect width="169.898" height="154.377" fill="#fff" transform="translate(187.103 32.3115)"/></clipPath></defs></svg>